<svg width="183" height="46" viewBox="0 0 183 46" fill="none" xmlns="http://www.w3.org/2000/svg">
<g id="LOGO 2">
<path id="Vector" d="M31.065 0H14.1154C6.31968 0 0 6.43432 0 14.3715V31.6285C0 39.5657 6.31968 46 14.1154 46H31.065C38.8607 46 45.1804 39.5657 45.1804 31.6285V14.3715C45.1804 6.43432 38.8607 0 31.065 0Z" fill="#8950FC"/>
<path id="Vector_2" d="M65.2322 31.4998C64.1158 31.4998 63.1716 31.2861 62.3986 30.8587C61.6261 30.4217 61.0393 29.8437 60.6386 29.1249C60.2474 28.4062 60.0518 27.6146 60.0518 26.7501C60.0518 25.9925 60.1757 25.3126 60.4241 24.7104C60.672 24.0985 61.0537 23.574 61.5689 23.1369C62.084 22.6901 62.7515 22.3259 63.5723 22.0442C64.1919 21.8402 64.9171 21.6557 65.7474 21.4905C66.5865 21.3254 67.4929 21.1749 68.466 21.0389C69.4485 20.8932 70.4744 20.7378 71.5425 20.5727L70.3121 21.2866C70.3215 20.1987 70.0831 19.3974 69.5963 18.8826C69.1101 18.3678 68.2893 18.1104 67.135 18.1104C66.4387 18.1104 65.7663 18.2756 65.1177 18.6058C64.4687 18.936 64.0157 19.5043 63.7579 20.3104L60.6097 19.3051C60.9915 17.9744 61.7167 16.906 62.7848 16.0998C63.8629 15.2937 65.3128 14.8906 67.135 14.8906C68.5088 14.8906 69.7158 15.1188 70.7556 15.5753C71.8048 16.0319 72.5822 16.7797 73.0879 17.819C73.3647 18.3727 73.532 18.9409 73.5892 19.5237C73.6464 20.0967 73.6748 20.7232 73.6748 21.4031V31.0627H70.6555V27.6535L71.1562 28.2071C70.4599 29.3435 69.6441 30.1788 68.7094 30.713C67.7841 31.2375 66.6249 31.4998 65.2322 31.4998ZM65.9191 28.7025C66.701 28.7025 67.369 28.5616 67.9225 28.2799C68.4754 27.9983 68.9145 27.6535 69.239 27.2455C69.5724 26.8376 69.7969 26.4539 69.9114 26.0945C70.0926 25.6477 70.1926 25.1378 70.2121 24.5647C70.2404 23.9819 70.2549 23.5109 70.2549 23.1515L71.3135 23.472C70.2738 23.6371 69.3818 23.7828 68.6377 23.9091C67.8936 24.0354 67.2545 24.1568 66.7204 24.2733C66.1858 24.3802 65.7135 24.5016 65.3034 24.6375C64.9027 24.7832 64.5642 24.9533 64.2875 25.1475C64.0107 25.3417 63.7962 25.5652 63.6434 25.8177C63.5006 26.0702 63.4289 26.3665 63.4289 26.7064C63.4289 27.0949 63.5245 27.4398 63.7151 27.7409C63.9057 28.0323 64.1825 28.2654 64.5453 28.4402C64.9171 28.615 65.375 28.7025 65.9191 28.7025ZM88.0897 31.0627V23.4866C88.0897 22.9912 88.0564 22.4424 87.9897 21.8402C87.923 21.238 87.7652 20.6601 87.5173 20.1065C87.2789 19.5431 86.9166 19.0817 86.4298 18.7223C85.953 18.363 85.3039 18.1833 84.4836 18.1833C84.0446 18.1833 83.6106 18.2561 83.1816 18.4018C82.752 18.5475 82.3613 18.8001 82.0079 19.1594C81.6644 19.5091 81.3882 19.9948 81.1782 20.6164C80.9681 21.2283 80.8631 22.015 80.8631 22.9766L78.8169 22.0879C78.8169 20.7475 79.0698 19.5334 79.5755 18.4455C80.0906 17.3577 80.8442 16.4932 81.8361 15.8522C82.8287 15.2014 84.0496 14.876 85.4995 14.876C86.6443 14.876 87.589 15.0703 88.3331 15.4588C89.0772 15.8473 89.6685 16.3427 90.1075 16.9448C90.5466 17.5471 90.8706 18.1881 91.0806 18.868C91.2907 19.5479 91.4241 20.1939 91.4813 20.8058C91.548 21.408 91.5813 21.8985 91.5813 22.2773V31.0627H88.0897ZM77.3715 31.0627V15.3277H80.4485V20.2084H80.8631V31.0627H77.3715ZM96.7885 38.0561L99.7649 29.7369L99.8222 32.1846L93.0823 15.3277H96.674L101.454 27.7991H100.538L105.189 15.3277H108.637L100.023 38.0561H96.7885ZM116.667 38.4932C115.923 38.4932 115.174 38.3863 114.42 38.1726C113.667 37.9589 112.956 37.5947 112.288 37.0799C111.63 36.5749 111.067 35.8804 110.6 34.9965L111.659 34.268C112.174 35.3461 112.899 36.1086 113.834 36.5554C114.768 37.0119 115.713 37.2402 116.667 37.2402C118.05 37.2402 119.129 36.9731 119.901 36.4389C120.683 35.9144 121.232 35.1276 121.547 34.0786C121.862 33.0393 122.019 31.7426 122.019 30.1885V26.1674H122.133V15.3277H123.25V30.1885C123.25 30.6645 123.24 31.1259 123.221 31.5727C123.202 32.0194 123.164 32.4614 123.106 32.8985C122.954 34.1709 122.62 35.2199 122.105 36.0455C121.599 36.8711 120.898 37.483 120.001 37.8812C119.105 38.2892 117.993 38.4932 116.667 38.4932ZM116.638 31.4998C115.179 31.4998 113.948 31.1356 112.947 30.4071C111.954 29.6689 111.201 28.6733 110.685 27.4203C110.17 26.1576 109.913 24.7396 109.913 23.166C109.913 21.6217 110.166 20.223 110.671 18.97C111.177 17.7171 111.911 16.7263 112.875 15.9979C113.848 15.2597 115.026 14.8906 116.409 14.8906C117.85 14.8906 119.061 15.25 120.044 15.9687C121.036 16.6778 121.786 17.6588 122.291 18.9118C122.796 20.155 123.049 21.5731 123.049 23.166C123.049 24.7298 122.796 26.1431 122.291 27.4057C121.795 28.6587 121.07 29.6543 120.116 30.3925C119.162 31.1307 118.003 31.4998 116.638 31.4998ZM116.638 30.276C117.85 30.276 118.861 29.9652 119.672 29.3435C120.492 28.7219 121.108 27.8768 121.518 26.8084C121.928 25.7303 122.133 24.5162 122.133 23.166C122.133 21.7965 121.923 20.5824 121.504 19.5237C121.094 18.4553 120.478 17.6199 119.658 17.0177C118.847 16.4155 117.84 16.1144 116.638 16.1144C115.408 16.1144 114.387 16.4252 113.576 17.0469C112.775 17.6588 112.179 18.4989 111.787 19.5674C111.396 20.6261 111.201 21.8257 111.201 23.166C111.201 24.5162 111.406 25.7303 111.816 26.8084C112.226 27.8768 112.832 28.7219 113.634 29.3435C114.444 29.9652 115.446 30.276 116.638 30.276ZM133.243 31.4124C132.46 31.4124 131.74 31.3007 131.082 31.0773C130.433 30.8539 129.851 30.5333 129.336 30.1157C128.83 29.6883 128.401 29.1687 128.049 28.5568C127.696 27.9448 127.428 27.2504 127.247 26.4733C127.066 25.6865 126.975 24.827 126.975 23.8945V15.3277H128.177V23.6614C128.177 24.7784 128.287 25.7497 128.506 26.5753C128.735 27.4009 129.069 28.0857 129.508 28.6296C129.947 29.1638 130.476 29.562 131.097 29.8243C131.726 30.0865 132.442 30.2177 133.243 30.2177C134.188 30.2177 134.989 30.0526 135.647 29.7223C136.315 29.3824 136.854 28.921 137.264 28.3382C137.674 27.7554 137.975 27.0852 138.165 26.3276C138.356 25.57 138.452 24.7687 138.452 23.9237L139.568 23.8945C139.568 25.6914 139.277 27.1435 138.695 28.2508C138.113 29.3484 137.34 30.1497 136.377 30.6548C135.423 31.1599 134.378 31.4124 133.243 31.4124ZM138.538 31.0627V27.8574H138.452V15.3277H139.654V31.0627H138.538ZM148.161 31.4998C146.959 31.4998 145.962 31.2861 145.17 30.8587C144.378 30.4314 143.787 29.868 143.395 29.1687C143.004 28.4693 142.809 27.7117 142.809 26.8958C142.809 25.9731 143.004 25.2106 143.395 24.6084C143.796 23.9965 144.316 23.5157 144.955 23.166C145.594 22.8164 146.281 22.5639 147.016 22.4084C147.913 22.2239 148.871 22.0636 149.892 21.9276C150.923 21.7819 151.872 21.6606 152.74 21.5634C153.608 21.4663 154.256 21.3886 154.686 21.3303L154.256 21.6217C154.304 19.7665 153.97 18.3873 153.255 17.4839C152.549 16.5709 151.299 16.1144 149.506 16.1144C148.209 16.1144 147.164 16.4107 146.372 17.0031C145.59 17.5859 145.041 18.4844 144.726 19.6985L143.41 19.3488C143.753 17.8919 144.455 16.7846 145.513 16.027C146.582 15.2694 147.932 14.8906 149.563 14.8906C150.994 14.8906 152.186 15.1868 153.141 15.7793C154.095 16.3718 154.743 17.1731 155.087 18.1833C155.22 18.5718 155.316 19.0429 155.373 19.5965C155.43 20.1501 155.458 20.6892 155.458 21.2137V31.0627H154.343V26.7501L154.915 26.7793C154.505 28.2751 153.689 29.4358 152.468 30.2614C151.247 31.087 149.811 31.4998 148.161 31.4998ZM148.103 30.276C149.219 30.276 150.202 30.072 151.051 29.664C151.91 29.2561 152.602 28.6685 153.126 27.9011C153.661 27.1241 153.999 26.1965 154.142 25.1184C154.219 24.5745 154.256 23.9917 154.256 23.37C154.256 22.7484 154.256 22.3016 154.256 22.0296L154.886 22.525C154.381 22.5735 153.68 22.6415 152.783 22.729C151.896 22.8066 150.956 22.9135 149.963 23.0495C148.972 23.1758 148.075 23.3409 147.273 23.5449C146.806 23.6614 146.324 23.846 145.828 24.0985C145.332 24.351 144.913 24.7056 144.569 25.162C144.235 25.6186 144.068 26.2062 144.068 26.925C144.068 27.4301 144.192 27.94 144.44 28.4547C144.688 28.9696 145.103 29.4018 145.685 29.7515C146.277 30.1011 147.083 30.276 148.103 30.276ZM159.179 31.0627V15.3277H160.296V19.0866L159.923 18.5912C160.085 18.1639 160.291 17.7656 160.538 17.3965C160.787 17.0275 161.03 16.7263 161.269 16.4932C161.688 16.0755 162.184 15.7599 162.757 15.5462C163.339 15.3228 163.921 15.1965 164.502 15.1674C165.084 15.1286 165.599 15.182 166.048 15.3277V16.4932C165.409 16.3475 164.731 16.3233 164.016 16.4204C163.3 16.5078 162.632 16.8429 162.013 17.4257C161.469 17.9404 161.082 18.5329 160.853 19.2031C160.634 19.8733 160.501 20.5678 160.453 21.2866C160.405 21.9956 160.381 22.6707 160.381 23.3117V31.0627H159.179ZM174.353 31.4998C172.894 31.4998 171.663 31.1356 170.661 30.4071C169.669 29.6689 168.915 28.6733 168.4 27.4203C167.885 26.1576 167.628 24.7396 167.628 23.166C167.628 21.6217 167.881 20.223 168.386 18.97C168.891 17.7171 169.626 16.7263 170.59 15.9979C171.563 15.2597 172.741 14.8906 174.124 14.8906C175.565 14.8906 176.776 15.25 177.759 15.9687C178.751 16.6778 179.5 17.6588 180.005 18.9118C180.511 20.155 180.764 21.5731 180.764 23.166C180.764 24.7298 180.511 26.1431 180.005 27.4057C179.51 28.6587 178.784 29.6543 177.83 30.3925C176.877 31.1307 175.717 31.4998 174.353 31.4998ZM174.353 30.276C175.565 30.276 176.576 29.9652 177.387 29.3435C178.207 28.7219 178.823 27.8768 179.233 26.8084C179.643 25.7303 179.848 24.5162 179.848 23.166C179.848 21.7965 179.638 20.5824 179.218 19.5237C178.808 18.4553 178.193 17.6199 177.372 17.0177C176.562 16.4155 175.555 16.1144 174.353 16.1144C173.123 16.1144 172.102 16.4252 171.291 17.0469C170.49 17.6588 169.893 18.4989 169.502 19.5674C169.111 20.6261 168.915 21.8257 168.915 23.166C168.915 24.5162 169.12 25.7303 169.531 26.8084C169.941 27.8768 170.547 28.7219 171.348 29.3435C172.159 29.9652 173.161 30.276 174.353 30.276ZM179.848 31.0627V18.6786H179.763V10.0826H180.965V31.0627H179.848Z" fill="white"/>
<path id="Vector_3" d="M12.6368 11.599H32.5441C32.874 11.599 33.1905 11.7324 33.4238 11.9698C33.6572 12.2072 33.7883 12.5292 33.7883 12.865V21.7269H11.3926V12.865C11.3926 12.5292 11.5237 12.2072 11.757 11.9698C11.9903 11.7324 12.3068 11.599 12.6368 11.599ZM16.3694 15.397V17.9289H20.102V15.397H16.3694Z" fill="white"/>
<path id="Vector_4" d="M12.6368 34.401H32.5441C32.874 34.401 33.1905 34.2676 33.4238 34.0302C33.6572 33.7928 33.7883 33.4708 33.7883 33.135V24.2731H11.3926V33.135C11.3926 33.4708 11.5237 33.7928 11.757 34.0302C11.9903 34.2676 12.3068 34.401 12.6368 34.401ZM16.3694 30.603V28.071H20.102V30.603H16.3694Z" fill="white" fill-opacity="0.35"/>
</g>
</svg>
