<svg width="168" height="41" viewBox="0 0 168 41" fill="none" xmlns="http://www.w3.org/2000/svg">
<path d="M28.5187 0H12.9584C5.80167 0 0 5.73494 0 12.8093V28.1907C0 35.2651 5.80167 41 12.9584 41H28.5187C35.6754 41 41.4771 35.2651 41.4771 28.1907V12.8093C41.4771 5.73494 35.6754 0 28.5187 0Z" fill="#8950FC"/>
<path d="M59.8847 28.076C58.8598 28.076 57.993 27.8855 57.2834 27.5046C56.5742 27.1151 56.0355 26.6 55.6677 25.9593C55.3085 25.3187 55.1289 24.6131 55.1289 23.8426C55.1289 23.1674 55.2427 22.5613 55.4707 22.0246C55.6983 21.4792 56.0488 21.0117 56.5217 20.6221C56.9946 20.2239 57.6073 19.8993 58.3609 19.6482C58.9297 19.4664 59.5955 19.3019 60.3577 19.1547C61.128 19.0076 61.9601 18.8734 62.8534 18.7522C63.7554 18.6223 64.6972 18.4838 65.6778 18.3366L64.5482 18.9729C64.5569 18.0033 64.338 17.2891 63.8911 16.8303C63.4447 16.3715 62.6912 16.142 61.6316 16.142C60.9923 16.142 60.375 16.2892 59.7796 16.5835C59.1838 16.8779 58.768 17.3844 58.5313 18.1029L55.6411 17.2068C55.9916 16.0208 56.6574 15.0685 57.6379 14.3499C58.6277 13.6314 59.9587 13.2721 61.6316 13.2721C62.8927 13.2721 64.0008 13.4756 64.9553 13.8825C65.9186 14.2894 66.6323 14.956 67.0965 15.8823C67.3506 16.3757 67.5042 16.8822 67.5567 17.4017C67.6093 17.9124 67.6353 18.4708 67.6353 19.0768V27.6864H64.8635V24.6478L65.3232 25.1412C64.6839 26.1541 63.935 26.8986 63.0769 27.3748C62.2275 27.8423 61.1632 28.076 59.8847 28.076ZM60.5153 25.5827C61.2331 25.5827 61.8464 25.4572 62.3545 25.2061C62.8621 24.9551 63.2652 24.6478 63.5631 24.2842C63.8692 23.9206 64.0753 23.5786 64.1804 23.2582C64.3467 22.86 64.4385 22.4055 64.4564 21.8948C64.4824 21.3753 64.4957 20.9554 64.4957 20.6351L65.4676 20.9208C64.513 21.068 63.6942 21.1979 63.0111 21.3104C62.328 21.4229 61.7413 21.5312 61.251 21.635C60.7602 21.7303 60.3265 21.8385 59.95 21.9597C59.5822 22.0895 59.2715 22.2411 59.0174 22.4142C58.7634 22.5873 58.5665 22.7865 58.4262 23.0115C58.295 23.2366 58.2292 23.5007 58.2292 23.8037C58.2292 24.15 58.317 24.4573 58.492 24.7257C58.667 24.9854 58.921 25.1932 59.2542 25.349C59.5955 25.5048 60.0159 25.5827 60.5153 25.5827ZM80.8687 27.6864V20.9338C80.8687 20.4923 80.8381 20.0032 80.7768 19.4664C80.7156 18.9296 80.5707 18.4145 80.3432 17.9211C80.1243 17.4189 79.7917 17.0077 79.3448 16.6874C78.9071 16.3671 78.3112 16.207 77.5582 16.207C77.1551 16.207 76.7567 16.2719 76.3628 16.4017C75.9685 16.5316 75.6098 16.7567 75.2853 17.077C74.97 17.3886 74.7165 17.8215 74.5236 18.3756C74.3308 18.921 74.2344 19.6222 74.2344 20.4793L72.3559 19.6872C72.3559 18.4925 72.5881 17.4103 73.0523 16.4407C73.5252 15.4711 74.217 14.7006 75.1277 14.1292C76.0389 13.5492 77.1597 13.2591 78.4908 13.2591C79.5417 13.2591 80.409 13.4323 81.0921 13.7786C81.7752 14.1249 82.3181 14.5664 82.7211 15.1031C83.1241 15.6399 83.4216 16.2113 83.6144 16.8173C83.8073 17.4233 83.9297 17.999 83.9823 18.5444C84.0435 19.0811 84.0741 19.5183 84.0741 19.856V27.6864H80.8687ZM71.029 27.6864V13.6617H73.8538V18.012H74.2344V27.6864H71.029ZM88.8544 33.9197L91.5869 26.5047L91.6394 28.6864L85.4521 13.6617H88.7493L93.1373 24.7776H92.2965L96.5662 13.6617H99.7318L91.8236 33.9197H88.8544ZM107.104 34.3092C106.421 34.3092 105.733 34.214 105.041 34.0235C104.349 33.8331 103.697 33.5085 103.084 33.0496C102.48 32.5994 101.963 31.9805 101.534 31.1926L102.506 30.5433C102.979 31.5043 103.644 32.1839 104.502 32.5821C105.361 32.989 106.228 33.1925 107.104 33.1925C108.374 33.1925 109.363 32.9544 110.073 32.4783C110.791 32.0108 111.294 31.3095 111.583 30.3745C111.872 29.4482 112.017 28.2925 112.017 26.9073V23.3232H112.122V13.6617H113.147V26.9073C113.147 27.3315 113.138 27.7427 113.12 28.141C113.103 28.5392 113.068 28.9331 113.015 29.3227C112.875 30.4567 112.569 31.3917 112.096 32.1276C111.632 32.8635 110.988 33.4089 110.164 33.7638C109.341 34.1274 108.321 34.3092 107.104 34.3092ZM107.077 28.076C105.738 28.076 104.608 27.7514 103.688 27.1021C102.777 26.4441 102.085 25.5568 101.612 24.44C101.139 23.3145 100.903 22.0506 100.903 20.6481C100.903 19.2716 101.135 18.025 101.599 16.9082C102.063 15.7914 102.738 14.9084 103.622 14.2591C104.516 13.6011 105.597 13.2721 106.867 13.2721C108.189 13.2721 109.302 13.5925 110.204 14.2331C111.115 14.8651 111.803 15.7395 112.266 16.8562C112.731 17.9644 112.963 19.2283 112.963 20.6481C112.963 22.0419 112.731 23.3016 112.266 24.427C111.811 25.5438 111.145 26.4311 110.269 27.0891C109.394 27.7471 108.33 28.076 107.077 28.076ZM107.077 26.9852C108.189 26.9852 109.118 26.7082 109.862 26.1541C110.615 25.6 111.181 24.8469 111.557 23.8946C111.934 22.9336 112.122 21.8515 112.122 20.6481C112.122 19.4274 111.929 18.3453 111.544 17.4017C111.167 16.4494 110.603 15.7048 109.849 15.1681C109.105 14.6314 108.181 14.363 107.077 14.363C105.948 14.363 105.011 14.64 104.266 15.1941C103.531 15.7395 102.983 16.4883 102.624 17.4406C102.265 18.3842 102.085 19.4534 102.085 20.6481C102.085 21.8515 102.273 22.9336 102.65 23.8946C103.027 24.8469 103.583 25.6 104.319 26.1541C105.063 26.7082 105.982 26.9852 107.077 26.9852ZM122.321 27.9981C121.602 27.9981 120.941 27.8986 120.337 27.6995C119.741 27.5003 119.207 27.2146 118.734 26.8423C118.27 26.4614 117.876 25.9983 117.552 25.4529C117.228 24.9075 116.983 24.2885 116.816 23.5959C116.65 22.8946 116.567 22.1285 116.567 21.2974V13.6617H117.671V21.0896C117.671 22.0852 117.771 22.9509 117.973 23.6868C118.183 24.4227 118.489 25.033 118.892 25.5178C119.295 25.994 119.781 26.3489 120.35 26.5826C120.928 26.8164 121.585 26.9333 122.321 26.9333C123.188 26.9333 123.924 26.7861 124.528 26.4918C125.141 26.1888 125.636 25.7775 126.012 25.2581C126.389 24.7386 126.665 24.1413 126.84 23.466C127.015 22.7908 127.103 22.0766 127.103 21.3234L128.128 21.2974C128.128 22.899 127.86 24.1932 127.326 25.1802C126.792 26.1585 126.082 26.8727 125.198 27.3228C124.322 27.773 123.363 27.9981 122.321 27.9981ZM127.182 27.6864V24.8296H127.103V13.6617H128.206V27.6864H127.182ZM136.016 28.076C134.912 28.076 133.997 27.8855 133.27 27.5046C132.543 27.1237 132 26.6216 131.641 25.9983C131.282 25.375 131.102 24.6997 131.102 23.9725C131.102 23.1501 131.282 22.4705 131.641 21.9337C132.009 21.3883 132.486 20.9598 133.073 20.6481C133.66 20.3365 134.29 20.1114 134.965 19.9729C135.788 19.8083 136.668 19.6655 137.606 19.5443C138.551 19.4144 139.423 19.3063 140.22 19.2197C141.017 19.1331 141.612 19.0638 142.006 19.0119L141.612 19.2716C141.656 17.6181 141.349 16.3888 140.693 15.5836C140.045 14.7698 138.897 14.363 137.25 14.363C136.06 14.363 135.101 14.627 134.374 15.1551C133.656 15.6745 133.152 16.4753 132.863 17.5575L131.654 17.2458C131.97 15.9472 132.613 14.9603 133.585 14.285C134.566 13.6098 135.806 13.2721 137.303 13.2721C138.617 13.2721 139.712 13.5362 140.587 14.0643C141.463 14.5924 142.059 15.3066 142.374 16.207C142.497 16.5533 142.584 16.9731 142.637 17.4666C142.689 17.96 142.715 18.4405 142.715 18.908V27.6864H141.691V23.8426L142.216 23.8686C141.84 25.2018 141.091 26.2364 139.97 26.9722C138.849 27.7081 137.531 28.076 136.016 28.076ZM135.963 26.9852C136.988 26.9852 137.89 26.8034 138.669 26.4398C139.457 26.0762 140.093 25.5524 140.574 24.8685C141.065 24.1759 141.376 23.3492 141.507 22.3882C141.577 21.9034 141.612 21.384 141.612 20.8299C141.612 20.2758 141.612 19.8776 141.612 19.6352L142.19 20.0767C141.726 20.12 141.082 20.1806 140.259 20.2585C139.445 20.3278 138.582 20.423 137.671 20.5442C136.76 20.6568 135.937 20.8039 135.201 20.9857C134.772 21.0896 134.33 21.2541 133.875 21.4792C133.419 21.7043 133.034 22.0203 132.719 22.4272C132.412 22.8341 132.258 23.3578 132.258 23.9985C132.258 24.4487 132.373 24.9031 132.6 25.362C132.828 25.8208 133.209 26.2061 133.743 26.5177C134.286 26.8294 135.026 26.9852 135.963 26.9852ZM146.131 27.6864V13.6617H147.156V17.0121L146.814 16.5706C146.963 16.1897 147.151 15.8347 147.379 15.5057C147.607 15.1768 147.83 14.9084 148.049 14.7006C148.434 14.3283 148.89 14.047 149.416 13.8565C149.95 13.6574 150.484 13.5448 151.018 13.5189C151.552 13.4843 152.025 13.5319 152.437 13.6617V14.7006C151.85 14.5707 151.228 14.5491 150.572 14.6357C149.914 14.7136 149.301 15.0123 148.732 15.5317C148.233 15.9905 147.878 16.5186 147.668 17.116C147.467 17.7133 147.344 18.3323 147.3 18.9729C147.256 19.6049 147.235 20.2066 147.235 20.778V27.6864H146.131ZM160.061 28.076C158.722 28.076 157.592 27.7514 156.672 27.1021C155.761 26.4441 155.069 25.5568 154.596 24.44C154.123 23.3145 153.887 22.0506 153.887 20.6481C153.887 19.2716 154.119 18.025 154.583 16.9082C155.047 15.7914 155.722 14.9084 156.606 14.2591C157.5 13.6011 158.581 13.2721 159.851 13.2721C161.173 13.2721 162.286 13.5925 163.188 14.2331C164.099 14.8651 164.787 15.7395 165.25 16.8562C165.715 17.9644 165.947 19.2283 165.947 20.6481C165.947 22.0419 165.715 23.3016 165.25 24.427C164.795 25.5438 164.129 26.4311 163.253 27.0891C162.378 27.7471 161.314 28.076 160.061 28.076ZM160.061 26.9852C161.173 26.9852 162.102 26.7082 162.846 26.1541C163.599 25.6 164.165 24.8469 164.541 23.8946C164.918 22.9336 165.106 21.8515 165.106 20.6481C165.106 19.4274 164.913 18.3453 164.528 17.4017C164.151 16.4494 163.587 15.7048 162.833 15.1681C162.089 14.6314 161.165 14.363 160.061 14.363C158.932 14.363 157.995 14.64 157.25 15.1941C156.515 15.7395 155.967 16.4883 155.608 17.4406C155.249 18.3842 155.069 19.4534 155.069 20.6481C155.069 21.8515 155.258 22.9336 155.634 23.8946C156.011 24.8469 156.567 25.6 157.303 26.1541C158.047 26.7082 158.966 26.9852 160.061 26.9852ZM165.106 27.6864V16.6485H165.027V8.98682H166.131V27.6864H165.106Z" fill="black"/>
<path d="M11.6012 10.3381H29.8767C30.1797 10.3381 30.4702 10.457 30.6844 10.6686C30.8986 10.8803 31.019 11.1673 31.019 11.4665V19.3652H10.459V11.4665C10.459 11.1673 10.5793 10.8803 10.7936 10.6686C11.0077 10.457 11.2983 10.3381 11.6012 10.3381ZM15.0279 13.7233V15.98H18.4545V13.7233H15.0279Z" fill="white"/>
<path d="M11.6012 30.6618H29.8767C30.1797 30.6618 30.4702 30.543 30.6844 30.3314C30.8986 30.1197 31.019 29.8327 31.019 29.5334V21.6348H10.459V29.5334C10.459 29.8327 10.5793 30.1197 10.7936 30.3314C11.0077 30.543 11.2983 30.6618 11.6012 30.6618ZM15.0279 27.2767V25.0199H18.4545V27.2767H15.0279Z" fill="white" fill-opacity="0.35"/>
</svg>
