<svg width="34" height="34" viewBox="0 0 34 34" fill="none" xmlns="http://www.w3.org/2000/svg">
<g id="Telegram_2019_Logo 1" clip-path="url(#clip0_12_84)">
<g id="Artboard">
<path id="Oval" d="M17.0071 34.0142C26.3998 34.0142 34.0142 26.3998 34.0142 17.0071C34.0142 7.61433 26.3998 0 17.0071 0C7.61433 0 0 7.61433 0 17.0071C0 26.3998 7.61433 34.0142 17.0071 34.0142Z" fill="url(#paint0_linear_12_84)"/>
<path id="Path-3" fill-rule="evenodd" clip-rule="evenodd" d="M7.68924 16.823C12.6455 14.6706 15.945 13.2404 17.6018 12.5465C22.3173 10.5781 23.3086 10.2383 23.9458 10.2241C24.0874 10.2241 24.3989 10.2524 24.6114 10.4224C24.7813 10.564 24.8238 10.7481 24.8521 10.8897C24.8804 11.0313 24.9087 11.3287 24.8804 11.5552C24.6255 14.2458 23.521 20.7739 22.9545 23.776C22.7138 25.0504 22.2465 25.4753 21.7934 25.5177C20.8021 25.6027 20.0516 24.8664 19.1028 24.2433C17.6018 23.2662 16.7663 22.6573 15.3077 21.6943C13.6226 20.5898 14.713 19.9809 15.6759 18.9896C15.9308 18.7347 20.2782 14.7697 20.3631 14.4157C20.3773 14.3732 20.3773 14.2033 20.2782 14.1183C20.179 14.0334 20.0374 14.0617 19.9241 14.09C19.7684 14.1183 17.3894 15.7043 12.7588 18.8339C12.0791 19.3012 11.4702 19.5277 10.9179 19.5136C10.309 19.4994 9.1478 19.1737 8.26983 18.8905C7.20777 18.5507 6.35813 18.3666 6.42893 17.7718C6.47141 17.4603 6.89624 17.1487 7.68924 16.823Z" fill="white"/>
</g>
</g>
<defs>
<linearGradient id="paint0_linear_12_84" x1="16.9929" y1="0" x2="16.9929" y2="33.7451" gradientUnits="userSpaceOnUse">
<stop stop-color="#2AABEE"/>
<stop offset="1" stop-color="#229ED9"/>
</linearGradient>
<clipPath id="clip0_12_84">
<rect width="34" height="34" fill="white"/>
</clipPath>
</defs>
</svg>
